<svg id="Layer_1_1_" enable-background="new 0 0 64 64" height="512" viewBox="0 0 64 64" width="512" xmlns="http://www.w3.org/2000/svg"><path d="m49 32c0-9.374-7.626-17-17-17s-17 7.626-17 17c0 5.18 2.335 9.818 6 12.938v5.648l-4.707 4.707c-.188.187-.293.441-.293.707v2h2v-1.586l4.707-4.707c.188-.187.293-.441.293-.707v-4.604c.943.591 1.946 1.091 3 1.49v4.7l-2.707 2.707c-.188.187-.293.441-.293.707v2h2v-1.586l2.707-2.707c.188-.187.293-.441.293-.707v-4.495c.971.235 1.973.384 3 .444v9.051h2v-9.051c1.027-.06 2.029-.209 3-.444v4.495c0 .266.105.52.293.707l2.707 2.707v1.586h2v-2c0-.266-.105-.52-.293-.707l-2.707-2.707v-4.7c1.054-.4 2.057-.899 3-1.49v4.604c0 .266.105.52.293.707l4.707 4.707v1.586h2v-2c0-.266-.105-.52-.293-.707l-4.707-4.707v-5.648c3.665-3.12 6-7.758 6-12.938zm-17-15c1.778 0 3.683 2.419 4.858 6.4-3.202.644-6.514.644-9.716 0 1.175-3.981 3.08-6.4 4.858-6.4zm0 8.889c1.79 0 3.578-.189 5.337-.548.356 1.695.584 3.595.641 5.659h-11.956c.057-2.064.285-3.965.641-5.659 1.759.359 3.547.548 5.337.548zm7.977 7.111h6.972c-.198 2.985-1.27 5.728-2.966 7.985-1.514-.772-3.089-1.388-4.705-1.848.4-1.877.641-3.944.699-6.137zm-2.64 5.66c-3.516-.718-7.157-.718-10.673 0-.356-1.695-.584-3.595-.641-5.66h11.955c-.057 2.065-.285 3.965-.641 5.66zm2.64-7.66c-.058-2.193-.299-4.26-.699-6.136 1.616-.46 3.191-1.076 4.705-1.848 1.696 2.257 2.768 5 2.966 7.985h-6.972zm-15.954 0h-6.972c.198-2.985 1.27-5.728 2.966-7.985 1.514.772 3.089 1.389 4.705 1.848-.4 1.878-.641 3.944-.699 6.137zm0 2c.058 2.193.299 4.26.699 6.137-1.616.459-3.191 1.075-4.705 1.848-1.696-2.257-2.768-5-2.966-7.985zm1.186 8.076c.624 2.135 1.464 3.937 2.463 5.282-2.421-.731-4.586-2.056-6.322-3.809 1.247-.606 2.539-1.094 3.859-1.473zm1.933-.476c3.202-.644 6.514-.644 9.716 0-1.175 3.981-3.08 6.4-4.858 6.4s-3.683-2.419-4.858-6.4zm11.649.476c1.32.379 2.612.867 3.86 1.472-1.736 1.753-3.901 3.078-6.322 3.809.998-1.344 1.838-3.146 2.462-5.281zm3.86-19.624c-1.248.606-2.54 1.093-3.86 1.472-.624-2.135-1.464-3.937-2.463-5.282 2.422.732 4.586 2.057 6.323 3.81zm-14.979-3.809c-.999 1.344-1.838 3.146-2.463 5.282-1.32-.379-2.612-.867-3.86-1.472 1.737-1.754 3.901-3.079 6.323-3.81z"/><path d="m46 60h2v2h-2z"/><path d="m39 60h2v2h-2z"/><path d="m16 60h2v2h-2z"/><path d="m23 60h2v2h-2z"/><path d="m31 60h2v2h-2z"/><path d="m28.465 12.293 1.414 1.414c1.17-1.17 3.072-1.17 4.242 0l1.414-1.414c-1.949-1.949-5.121-1.949-7.07 0z"/><path d="m38.681 9.293c-3.684-3.684-9.678-3.684-13.361 0l1.414 1.414c2.904-2.904 7.629-2.904 10.533 0z"/><path d="m40.293 7.707 1.414-1.414c-5.352-5.354-14.062-5.354-19.414 0l1.414 1.414c4.572-4.572 12.014-4.572 16.586 0z"/><path d="m12.293 28.465c-1.949 1.949-1.949 5.121 0 7.07l1.414-1.414c-1.17-1.17-1.17-3.072 0-4.242z"/><path d="m9.293 25.319c-3.684 3.684-3.684 9.678 0 13.361l1.414-1.414c-2.904-2.904-2.904-7.629 0-10.533z"/><path d="m7.707 23.707-1.414-1.414c-5.353 5.353-5.353 14.062 0 19.414l1.414-1.414c-4.572-4.573-4.572-12.013 0-16.586z"/><path d="m50.293 29.879c1.17 1.17 1.17 3.072 0 4.242l1.414 1.414c1.949-1.949 1.949-5.121 0-7.07z"/><path d="m54.707 25.319-1.414 1.414c2.904 2.904 2.904 7.629 0 10.533l1.414 1.414c3.684-3.683 3.684-9.677 0-13.361z"/><path d="m57.707 22.293-1.414 1.414c4.572 4.573 4.572 12.013 0 16.586l1.414 1.414c5.353-5.353 5.353-14.061 0-19.414z"/></svg>